<svg id="visual" viewBox="0 0 900 600" width="900" height="600" xmlns="http://www.w3.org/2000/svg" xmlns:xlink="http://www.w3.org/1999/xlink" version="1.1"><rect x="0" y="0" width="900" height="600" fill="#00080e"></rect><path d="M0 438L21.5 443.7C43 449.3 86 460.7 128.8 460.7C171.7 460.7 214.3 449.3 257.2 438.8C300 428.3 343 418.7 385.8 423C428.7 427.3 471.3 445.7 514.2 454.3C557 463 600 462 642.8 453.7C685.7 445.3 728.3 429.7 771.2 417.3C814 405 857 396 878.5 391.5L900 387L900 601L878.5 601C857 601 814 601 771.2 601C728.3 601 685.7 601 642.8 601C600 601 557 601 514.2 601C471.3 601 428.7 601 385.8 601C343 601 300 601 257.2 601C214.3 601 171.7 601 128.8 601C86 601 43 601 21.5 601L0 601Z" fill="#4facf7"></path><path d="M0 467L21.5 468.3C43 469.7 86 472.3 128.8 475.5C171.7 478.7 214.3 482.3 257.2 484.3C300 486.3 343 486.7 385.8 488C428.7 489.3 471.3 491.7 514.2 490.5C557 489.3 600 484.7 642.8 485.7C685.7 486.7 728.3 493.3 771.2 486.2C814 479 857 458 878.5 447.5L900 437L900 601L878.5 601C857 601 814 601 771.2 601C728.3 601 685.7 601 642.8 601C600 601 557 601 514.2 601C471.3 601 428.7 601 385.8 601C343 601 300 601 257.2 601C214.3 601 171.7 601 128.8 601C86 601 43 601 21.5 601L0 601Z" fill="#89c0fa"></path><path d="M0 528L21.5 526C43 524 86 520 128.8 515.3C171.7 510.7 214.3 505.3 257.2 500.5C300 495.7 343 491.3 385.8 496.3C428.7 501.3 471.3 515.7 514.2 517.5C557 519.3 600 508.7 642.8 501.2C685.7 493.7 728.3 489.3 771.2 491.8C814 494.3 857 503.7 878.5 508.3L900 513L900 601L878.5 601C857 601 814 601 771.2 601C728.3 601 685.7 601 642.8 601C600 601 557 601 514.2 601C471.3 601 428.7 601 385.8 601C343 601 300 601 257.2 601C214.3 601 171.7 601 128.8 601C86 601 43 601 21.5 601L0 601Z" fill="#b4d4fc"></path><path d="M0 505L21.5 505.3C43 505.7 86 506.3 128.8 514.3C171.7 522.3 214.3 537.7 257.2 539.8C300 542 343 531 385.8 526.5C428.7 522 471.3 524 514.2 524.2C557 524.3 600 522.7 642.8 521C685.7 519.3 728.3 517.7 771.2 523.7C814 529.7 857 543.3 878.5 550.2L900 557L900 601L878.5 601C857 601 814 601 771.2 601C728.3 601 685.7 601 642.8 601C600 601 557 601 514.2 601C471.3 601 428.7 601 385.8 601C343 601 300 601 257.2 601C214.3 601 171.7 601 128.8 601C86 601 43 601 21.5 601L0 601Z" fill="#dbe9fe"></path><path d="M0 586L21.5 582.3C43 578.7 86 571.3 128.8 568.8C171.7 566.3 214.3 568.7 257.2 572.3C300 576 343 581 385.8 581.7C428.7 582.3 471.3 578.7 514.2 574.2C557 569.7 600 564.3 642.8 563C685.7 561.7 728.3 564.3 771.2 563.5C814 562.7 857 558.3 878.5 556.2L900 554L900 601L878.5 601C857 601 814 601 771.2 601C728.3 601 685.7 601 642.8 601C600 601 557 601 514.2 601C471.3 601 428.7 601 385.8 601C343 601 300 601 257.2 601C214.3 601 171.7 601 128.8 601C86 601 43 601 21.5 601L0 601Z" fill="#ffffff"></path></svg>